<svg xmlns="http://www.w3.org/2000/svg" viewBox="0 0 766.74 148.34"><defs><style>.cls-1{fill:#136ef8;}.cls-2{fill:#0053cc;}</style></defs><g id="Livello_2" data-name="Livello 2"><g id="Livello_2-2" data-name="Livello 2"><path class="cls-1" d="M5,82.86a5,5,0,0,1-5-5V44.15a5,5,0,0,1,10,0V77.86A5,5,0,0,1,5,82.86Z"/><path class="cls-1" d="M25.15,101.75a5,5,0,0,1-5-5V23.25a5,5,0,0,1,10,0v73.5A5,5,0,0,1,25.15,101.75Z"/><path class="cls-1" d="M45.08,51.74a5,5,0,0,1-5-5V10.85a5,5,0,0,1,10,0V46.74A5,5,0,0,1,45.08,51.74Z"/><path class="cls-1" d="M45.08,114.15a5,5,0,0,1-5-5V74.5a5,5,0,0,1,10,0v34.65A5,5,0,0,1,45.08,114.15Z"/><path class="cls-1" d="M145,82.86a5,5,0,0,1-5-5V44.15a5,5,0,0,1,10,0V77.86A5,5,0,0,1,145,82.86Z"/><path class="cls-1" d="M125.08,101.76a5,5,0,0,1-5-5V23.25a5,5,0,0,1,10,0V96.76A5,5,0,0,1,125.08,101.76Z"/><path class="cls-1" d="M105.08,51.74a5,5,0,0,1-5-5V10.85a5,5,0,1,1,10,0V46.74A5,5,0,0,1,105.08,51.74Z"/><path class="cls-1" d="M105.08,114.15a5,5,0,0,1-5-5V74.5a5,5,0,0,1,10,0v34.65A5,5,0,0,1,105.08,114.15Z"/><path class="cls-1" d="M65.08,36.71a5,5,0,0,1-5-5V5a5,5,0,0,1,10,0V31.71A5,5,0,0,1,65.08,36.71Z"/><path class="cls-1" d="M65.08,120a5,5,0,0,1-5-5V88.29a5,5,0,0,1,10,0V115A5,5,0,0,1,65.08,120Z"/><path class="cls-1" d="M85.08,36.71a5,5,0,0,1-5-5V5a5,5,0,0,1,10,0V31.71A5,5,0,0,1,85.08,36.71Z"/><path class="cls-1" d="M85.08,120a5,5,0,0,1-5-5V88.29a5,5,0,0,1,10,0V115A5,5,0,0,1,85.08,120Z"/><path class="cls-2" d="M195.11,114.54h-4.36v5.66h-3.28v3.52h3.28v11.56a5.5,5.5,0,0,0,1.59,4.28,6.23,6.23,0,0,0,4.35,1.46,10.69,10.69,0,0,0,1.72-.16,6.92,6.92,0,0,0,1.63-.49v-3.76a4.53,4.53,0,0,1-1.17.47,5.37,5.37,0,0,1-1.37.18,2.17,2.17,0,0,1-1.88-.71,3.62,3.62,0,0,1-.51-2.12V123.72H200V120.2h-4.93Z"/><path class="cls-2" d="M217.67,120.58a9.25,9.25,0,0,0-4.08-.82,11.44,11.44,0,0,0-3.74.66,14.84,14.84,0,0,0-2.25,1v-9.81h-4.24v28.86h4.2l0-15.76a11.12,11.12,0,0,1,2.33-1,8.36,8.36,0,0,1,2.44-.37,4.47,4.47,0,0,1,3.48,1.3,5.41,5.41,0,0,1,1.17,3.76v12h4.25V127.92a10.13,10.13,0,0,0-1-4.71A6,6,0,0,0,217.67,120.58Z"/><path class="cls-2" d="M242.23,125.23a8.25,8.25,0,0,0-2.93-4.06,10.24,10.24,0,0,0-12.23,1.27q-2.49,2.73-2.49,8a13,13,0,0,0,1.19,5.82,8.18,8.18,0,0,0,3.4,3.6,10.59,10.59,0,0,0,5.19,1.21,19.51,19.51,0,0,0,4-.38,18.16,18.16,0,0,0,3.19-1V135.8a15.05,15.05,0,0,1-1.74.75,13.53,13.53,0,0,1-2.2.63,13,13,0,0,1-2.57.24,5.93,5.93,0,0,1-4.65-1.76,7,7,0,0,1-1.52-4.34H243.1A18.2,18.2,0,0,0,242.23,125.23Zm-11.1-1.37a5.26,5.26,0,0,1,2.75-.67,4.47,4.47,0,0,1,3.68,1.44,6.68,6.68,0,0,1,1.2,3.53H229a10,10,0,0,1,.45-2A4.17,4.17,0,0,1,231.13,123.86Z"/><polygon class="cls-2" points="275.75 135.58 271.35 120.2 267.84 120.2 263.55 135.49 259.02 120.2 254.5 120.2 261.25 140.49 265.25 140.49 269.57 126.06 273.94 140.49 277.94 140.49 284.73 120.2 280.37 120.2 275.75 135.58"/><path class="cls-2" d="M302.78,125.23a8.13,8.13,0,0,0-2.93-4.06,10.24,10.24,0,0,0-12.23,1.27q-2.47,2.73-2.48,8a12.85,12.85,0,0,0,1.19,5.82,8.13,8.13,0,0,0,3.4,3.6,10.53,10.53,0,0,0,5.19,1.21,19.41,19.41,0,0,0,4-.38,18.28,18.28,0,0,0,3.2-1V135.8a16.74,16.74,0,0,1-1.74.75,13.65,13.65,0,0,1-2.21.63,12.94,12.94,0,0,1-2.56.24,5.93,5.93,0,0,1-4.65-1.76,7,7,0,0,1-1.53-4.34h14.22A17.7,17.7,0,0,0,302.78,125.23Zm-11.09-1.37a5.25,5.25,0,0,1,2.74-.67,4.46,4.46,0,0,1,3.68,1.44,6.68,6.68,0,0,1,1.21,3.53h-9.81a9.35,9.35,0,0,1,.46-2A4.12,4.12,0,0,1,291.69,123.86Z"/><path class="cls-2" d="M316.34,119.76a10.68,10.68,0,0,0-2,.24,19.3,19.3,0,0,0-2.34.64c-.3.11-.57.24-.83.36v-8.92h-4.2v24.41a3.58,3.58,0,0,0,.7,2.3,4.72,4.72,0,0,0,1.92,1.4,11,11,0,0,0,2.75.71,25.45,25.45,0,0,0,3.2.2,13.61,13.61,0,0,0,3.65-.49,8.49,8.49,0,0,0,3.24-1.67,8.38,8.38,0,0,0,2.3-3.34,14.66,14.66,0,0,0,.87-5.46c0-3.28-.77-5.84-2.3-7.66S319.42,119.76,316.34,119.76Zm4.41,14.12a4.9,4.9,0,0,1-1.78,2.57,6,6,0,0,1-3.68,1,13.78,13.78,0,0,1-1.92-.14,3.64,3.64,0,0,1-1.59-.59,1.42,1.42,0,0,1-.65-1.25V124.53a8.08,8.08,0,0,1,2.28-.89,10.32,10.32,0,0,1,2.29-.29,5.51,5.51,0,0,1,3.11.81,4.83,4.83,0,0,1,1.82,2.35,10.47,10.47,0,0,1,.61,3.8A12,12,0,0,1,320.75,133.88Z"/><path class="cls-2" d="M353.76,121.92a6,6,0,0,0-1.8-1.25,9.73,9.73,0,0,0-2.16-.69,11.92,11.92,0,0,0-2.29-.22,21.32,21.32,0,0,0-4.47.46,9.52,9.52,0,0,0-3.29,1.23v4a8.33,8.33,0,0,1,3-1.52,12.38,12.38,0,0,1,3.52-.55,6,6,0,0,1,3.68,1,3.71,3.71,0,0,1,1.29,3.14v1.92a7.62,7.62,0,0,0-1-.53,11.84,11.84,0,0,0-2.22-.67,14.66,14.66,0,0,0-2.77-.24,9.69,9.69,0,0,0-4,.73,5.41,5.41,0,0,0-2.55,2.18,7.06,7.06,0,0,0-.89,3.72,6.44,6.44,0,0,0,.71,3.17,5.33,5.33,0,0,0,1.9,2,8.46,8.46,0,0,0,2.65,1,15,15,0,0,0,3,.3,27.28,27.28,0,0,0,4.77-.38,6.92,6.92,0,0,0,3.33-1.46,3.82,3.82,0,0,0,1.23-3v-9.7a7.18,7.18,0,0,0-.44-2.67A5.56,5.56,0,0,0,353.76,121.92Zm-3.66,15.54a13.7,13.7,0,0,1-3.52.33,6.79,6.79,0,0,1-2.16-.35,4,4,0,0,1-1.72-1.09,2.78,2.78,0,0,1-.69-2,2.74,2.74,0,0,1,1.2-2.43,6.21,6.21,0,0,1,3.49-.8,12,12,0,0,1,3.24.42,10.73,10.73,0,0,1,1.29.45V136A1.41,1.41,0,0,1,350.1,137.46Z"/><path class="cls-2" d="M369.42,137.14q-3.44,0-4.95-1.68T363,130.14c0-2.34.54-4,1.6-5.09a6.5,6.5,0,0,1,4.75-1.58,11.75,11.75,0,0,1,2.87.35,16.61,16.61,0,0,1,2.75,1V121a13.35,13.35,0,0,0-3-.91,17.76,17.76,0,0,0-3.24-.3,13.06,13.06,0,0,0-3.69.52,8.46,8.46,0,0,0-3.22,1.76,8.32,8.32,0,0,0-2.22,3.29,14.18,14.18,0,0,0-.81,5.14,12.74,12.74,0,0,0,.85,5,8.22,8.22,0,0,0,2.28,3.19,8.89,8.89,0,0,0,3.22,1.72,12.75,12.75,0,0,0,3.63.53,15.65,15.65,0,0,0,3.28-.33,13.25,13.25,0,0,0,2.95-1v-3.8a15.69,15.69,0,0,1-2.63.95A10.87,10.87,0,0,1,369.42,137.14Z"/><path class="cls-2" d="M387.85,137.14q-3.44,0-5-1.68t-1.51-5.32q0-3.51,1.59-5.09a6.51,6.51,0,0,1,4.75-1.58,11.69,11.69,0,0,1,2.87.35,16.3,16.3,0,0,1,2.75,1V121a13,13,0,0,0-3-.91,17.73,17.73,0,0,0-3.23-.3,13.13,13.13,0,0,0-3.7.52,8.53,8.53,0,0,0-3.22,1.76,8.32,8.32,0,0,0-2.22,3.29,14.18,14.18,0,0,0-.81,5.14,12.74,12.74,0,0,0,.85,5,8.24,8.24,0,0,0,2.29,3.19,8.76,8.76,0,0,0,3.21,1.72,12.77,12.77,0,0,0,3.64.53,15.49,15.49,0,0,0,3.27-.33,13.08,13.08,0,0,0,2.95-1v-3.8a15.37,15.37,0,0,1-2.63.95A10.87,10.87,0,0,1,387.85,137.14Z"/><path class="cls-2" d="M413.26,125.23a8.19,8.19,0,0,0-2.93-4.06,10.24,10.24,0,0,0-12.23,1.27c-1.66,1.82-2.48,4.5-2.48,8a12.85,12.85,0,0,0,1.19,5.82,8.11,8.11,0,0,0,3.39,3.6,10.6,10.6,0,0,0,5.2,1.21,19.48,19.48,0,0,0,4-.38,18.16,18.16,0,0,0,3.19-1V135.8a15.05,15.05,0,0,1-1.74.75,13.24,13.24,0,0,1-2.2.63,13,13,0,0,1-2.57.24,5.92,5.92,0,0,1-4.64-1.76,7,7,0,0,1-1.53-4.34h14.22A17.7,17.7,0,0,0,413.26,125.23Zm-11.1-1.37a5.29,5.29,0,0,1,2.75-.67,4.47,4.47,0,0,1,3.68,1.44,6.68,6.68,0,0,1,1.21,3.53H400a9.35,9.35,0,0,1,.46-2A4.15,4.15,0,0,1,402.16,123.86Z"/><path class="cls-2" d="M429.21,130.27a7,7,0,0,0-2-1l-2.11-.67c-.72-.22-1.4-.43-2-.65a3.94,3.94,0,0,1-1.53-.89,2,2,0,0,1-.59-1.53,1.86,1.86,0,0,1,1.05-1.72,5.36,5.36,0,0,1,2.63-.59,7.35,7.35,0,0,1,3,.57c.86.38,1.78.82,2.75,1.33l0-3.64a20.73,20.73,0,0,0-2.65-1.17,11.1,11.1,0,0,0-3.5-.52,10.63,10.63,0,0,0-2.64.34,7.76,7.76,0,0,0-2.47,1.09,5.88,5.88,0,0,0-1.8,1.94,5.7,5.7,0,0,0-.69,2.89,5.61,5.61,0,0,0,.55,2.59,4.88,4.88,0,0,0,1.46,1.72,7.78,7.78,0,0,0,2,1c.72.25,1.45.48,2.18.66l2,.73a5.39,5.39,0,0,1,1.6.89,1.82,1.82,0,0,1,.62,1.46,2.2,2.2,0,0,1-1,1.82,4.56,4.56,0,0,1-2.73.72,10,10,0,0,1-2.48-.28,10.37,10.37,0,0,1-2.12-.79c-.68-.33-1.36-.72-2.07-1.15v4a21.28,21.28,0,0,0,3,1.15,12.69,12.69,0,0,0,3.69.47,11.7,11.7,0,0,0,3.85-.65,6.64,6.64,0,0,0,3-2.06,5.81,5.81,0,0,0,1.19-3.68,5.66,5.66,0,0,0-.59-2.75A4.94,4.94,0,0,0,429.21,130.27Z"/><path class="cls-2" d="M446.47,130.27a7,7,0,0,0-2-1l-2.11-.67c-.72-.22-1.4-.43-2-.65a3.94,3.94,0,0,1-1.53-.89,2,2,0,0,1-.59-1.53,1.86,1.86,0,0,1,1.05-1.72,5.36,5.36,0,0,1,2.63-.59,7.35,7.35,0,0,1,3,.57c.86.38,1.78.82,2.75,1.33l0-3.64a20.13,20.13,0,0,0-2.65-1.17,11.08,11.08,0,0,0-3.49-.52,10.65,10.65,0,0,0-2.65.34,7.76,7.76,0,0,0-2.47,1.09,5.88,5.88,0,0,0-1.8,1.94,5.7,5.7,0,0,0-.68,2.89,5.61,5.61,0,0,0,.54,2.59,5,5,0,0,0,1.46,1.72,7.78,7.78,0,0,0,2,1c.73.25,1.45.48,2.18.66l2,.73a5.39,5.39,0,0,1,1.6.89,1.8,1.8,0,0,1,.63,1.46,2.19,2.19,0,0,1-1,1.82,4.55,4.55,0,0,1-2.72.72,10,10,0,0,1-2.49-.28,10.37,10.37,0,0,1-2.12-.79c-.68-.33-1.36-.72-2.06-1.15v4a20.69,20.69,0,0,0,3,1.15,12.71,12.71,0,0,0,3.7.47,11.64,11.64,0,0,0,3.84-.65,6.59,6.59,0,0,0,3-2.06,5.81,5.81,0,0,0,1.19-3.68A5.67,5.67,0,0,0,448,132,5.07,5.07,0,0,0,446.47,130.27Z"/><polygon class="cls-2" points="452.05 120.32 452.05 140.49 456.33 140.49 456.29 120.32 452.05 120.32"/><rect class="cls-2" x="451.92" y="113.13" width="4.53" height="3.84"/><path class="cls-2" d="M470.24,119.76a10.5,10.5,0,0,0-2,.24,19,19,0,0,0-2.35.64c-.3.11-.57.24-.83.36v-8.92h-4.2v24.41a3.53,3.53,0,0,0,.71,2.3,4.66,4.66,0,0,0,1.92,1.4,10.76,10.76,0,0,0,2.74.71,25.45,25.45,0,0,0,3.2.2,13.74,13.74,0,0,0,3.66-.49,8.45,8.45,0,0,0,3.23-1.67,8.28,8.28,0,0,0,2.3-3.34,14.46,14.46,0,0,0,.87-5.46c0-3.28-.76-5.84-2.3-7.66S473.31,119.76,470.24,119.76Zm4.4,14.12a4.88,4.88,0,0,1-1.77,2.57,6,6,0,0,1-3.68,1,13.56,13.56,0,0,1-1.92-.14,3.63,3.63,0,0,1-1.6-.59,1.42,1.42,0,0,1-.65-1.25V124.53a8,8,0,0,1,2.29-.89,10.17,10.17,0,0,1,2.28-.29,5.46,5.46,0,0,1,3.11.81,4.83,4.83,0,0,1,1.82,2.35,10.26,10.26,0,0,1,.61,3.8A12,12,0,0,1,474.64,133.88Z"/><rect class="cls-2" x="482.77" y="113.13" width="4.53" height="3.84"/><polygon class="cls-2" points="482.89 120.32 482.89 140.49 487.18 140.49 487.14 120.32 482.89 120.32"/><rect class="cls-2" x="491.66" y="112.52" width="4.2" height="27.97"/><polygon class="cls-2" points="500.35 120.32 500.35 140.49 504.64 140.49 504.6 120.32 500.35 120.32"/><rect class="cls-2" x="500.23" y="113.13" width="4.53" height="3.84"/><path class="cls-2" d="M514.79,114.54h-4.37v5.66h-3.27v3.52h3.27v11.56a5.47,5.47,0,0,0,1.6,4.28,6.19,6.19,0,0,0,4.34,1.46,10.69,10.69,0,0,0,1.72-.16,7,7,0,0,0,1.64-.49v-3.76a4.76,4.76,0,0,1-1.18.47,5.31,5.31,0,0,1-1.37.18,2.17,2.17,0,0,1-1.88-.71,3.63,3.63,0,0,1-.5-2.12V123.72h4.93V120.2h-4.93Z"/><path class="cls-2" d="M531.66,135.37,526.1,120.2h-4.81l8.27,20.18a11.2,11.2,0,0,1-.63,1.73,5,5,0,0,1-1.37,1.86,3.14,3.14,0,0,1-2,.65,4.32,4.32,0,0,1-1-.12c-.33-.09-.65-.18-1-.29v3.64a8,8,0,0,0,2.66.49,5.69,5.69,0,0,0,2.41-.57,7.18,7.18,0,0,0,2.41-2,15.41,15.41,0,0,0,2.18-4l8.37-21.55h-4.41Z"/><path class="cls-2" d="M565.84,130.27a6.9,6.9,0,0,0-2-1l-2.1-.67c-.73-.22-1.41-.43-2.05-.65a3.94,3.94,0,0,1-1.53-.89,2,2,0,0,1-.59-1.53,1.86,1.86,0,0,1,1.05-1.72,5.36,5.36,0,0,1,2.63-.59,7.35,7.35,0,0,1,3,.57c.86.38,1.78.82,2.75,1.33l0-3.64a20.13,20.13,0,0,0-2.65-1.17,11.08,11.08,0,0,0-3.49-.52,10.65,10.65,0,0,0-2.65.34,7.85,7.85,0,0,0-2.47,1.09,5.88,5.88,0,0,0-1.8,1.94,5.8,5.8,0,0,0-.68,2.89,5.61,5.61,0,0,0,.54,2.59,5,5,0,0,0,1.46,1.72,7.78,7.78,0,0,0,2,1c.73.25,1.45.48,2.18.66l2,.73a5.39,5.39,0,0,1,1.6.89,1.8,1.8,0,0,1,.63,1.46,2.2,2.2,0,0,1-1,1.82,4.56,4.56,0,0,1-2.73.72,10,10,0,0,1-2.49-.28,10.37,10.37,0,0,1-2.12-.79c-.67-.33-1.36-.72-2.06-1.15v4a20.69,20.69,0,0,0,3,1.15,12.71,12.71,0,0,0,3.7.47,11.64,11.64,0,0,0,3.84-.65,6.59,6.59,0,0,0,3-2.06,5.76,5.76,0,0,0,1.19-3.68,5.67,5.67,0,0,0-.58-2.75A5.07,5.07,0,0,0,565.84,130.27Z"/><path class="cls-2" d="M585.45,121a11.21,11.21,0,0,0-5.54-1.24q-4.7,0-7.18,2.57t-2.48,8.07q0,5.18,2.4,8T580,141.1a9.2,9.2,0,0,0,7.21-2.81q2.53-2.81,2.53-7.94a14.28,14.28,0,0,0-1.05-5.78A7.52,7.52,0,0,0,585.45,121ZM585,134.07a5.05,5.05,0,0,1-1.76,2.52,5.31,5.31,0,0,1-3.27.91,4.7,4.7,0,0,1-4.25-1.9,9.52,9.52,0,0,1-1.25-5.25,11.81,11.81,0,0,1,.53-3.8,4.71,4.71,0,0,1,1.73-2.43,5.6,5.6,0,0,1,3.24-.85,5.89,5.89,0,0,1,3.23.79,4.54,4.54,0,0,1,1.78,2.37,11.6,11.6,0,0,1,.57,3.92A11.74,11.74,0,0,1,585,134.07Z"/><rect class="cls-2" x="593.04" y="112.52" width="4.21" height="27.97"/><path class="cls-2" d="M615.32,132.33a5.49,5.49,0,0,1-1.15,3.82,5.82,5.82,0,0,1-7.16,0,5.44,5.44,0,0,1-1.15-3.82V120.2h-4.25v12.73a8.64,8.64,0,0,0,1.1,4.53,6.75,6.75,0,0,0,3.09,2.73,11.44,11.44,0,0,0,4.79.91,9.48,9.48,0,0,0,6.49-2.06c1.55-1.38,2.32-3.41,2.32-6.11V120.2h-4.08Z"/><path class="cls-2" d="M629.43,114.54h-4.37v5.66h-3.27v3.52h3.27v11.56a5.47,5.47,0,0,0,1.6,4.28A6.19,6.19,0,0,0,631,141a10.69,10.69,0,0,0,1.72-.16,7,7,0,0,0,1.64-.49v-3.76a4.68,4.68,0,0,1-1.17.47,5.45,5.45,0,0,1-1.38.18,2.18,2.18,0,0,1-1.88-.71,3.63,3.63,0,0,1-.5-2.12V123.72h4.93V120.2h-4.93Z"/><rect class="cls-2" x="637.67" y="113.13" width="4.53" height="3.84"/><polygon class="cls-2" points="637.79 120.32 637.79 140.49 642.08 140.49 642.04 120.32 637.79 120.32"/><path class="cls-2" d="M660.71,121a11.15,11.15,0,0,0-5.53-1.24q-4.7,0-7.18,2.57t-2.49,8.07c0,3.45.81,6.1,2.41,8s4.05,2.79,7.34,2.79a9.2,9.2,0,0,0,7.21-2.81q2.53-2.81,2.53-7.94a14.28,14.28,0,0,0-1-5.78A7.49,7.49,0,0,0,660.71,121Zm-.46,13.12a5.05,5.05,0,0,1-1.76,2.52,5.31,5.31,0,0,1-3.27.91,4.7,4.7,0,0,1-4.25-1.9,9.52,9.52,0,0,1-1.25-5.25,11.81,11.81,0,0,1,.53-3.8,4.61,4.61,0,0,1,1.73-2.43,5.6,5.6,0,0,1,3.24-.85,5.92,5.92,0,0,1,3.23.79,4.54,4.54,0,0,1,1.78,2.37,11.6,11.6,0,0,1,.57,3.92A11.74,11.74,0,0,1,660.25,134.07Z"/><path class="cls-2" d="M685.13,123a5.47,5.47,0,0,0-2.71-2.43,12,12,0,0,0-4.69-.78,19.64,19.64,0,0,0-2.5.16c-.87.11-1.72.25-2.55.44a22,22,0,0,0-2.37.67,17.24,17.24,0,0,0-2,.83v18.63h4.25V124.16a14,14,0,0,1,4.4-.77,6.88,6.88,0,0,1,2.49.37,3.37,3.37,0,0,1,1.46,1,3.53,3.53,0,0,1,.68,1.37,6.51,6.51,0,0,1,.18,1.52v12.85H686V127.07A8.55,8.55,0,0,0,685.13,123Z"/><path class="cls-1" d="M214,13,185.77,87.57h17.11l5.37-16.11h27.89l5.45,16.11h18.58L233.76,13Zm-1.27,45.19L222.09,30l9.54,28.18Z"/><path class="cls-1" d="M293.17,75q-8.84,0-12.64-4.25t-3.81-12.65q0-7.94,4.31-11.46t11.36-3.53a25.26,25.26,0,0,1,7.66,1.18,65.61,65.61,0,0,1,7.66,3V33a38.79,38.79,0,0,0-8.55-2.63,49.66,49.66,0,0,0-9.46-.95,35.55,35.55,0,0,0-11.86,1.9A25.76,25.76,0,0,0,268.5,37a26.06,26.06,0,0,0-6.21,9.56,37.24,37.24,0,0,0-2.24,13.49A32.26,32.26,0,0,0,262.4,72.8a24.48,24.48,0,0,0,6.49,9.06,27.73,27.73,0,0,0,9.51,5.37A36,36,0,0,0,289.81,89a38.75,38.75,0,0,0,9.85-1.12,40.27,40.27,0,0,0,8.17-3.13V70.56a49.13,49.13,0,0,1-6.66,3A22.49,22.49,0,0,1,293.17,75Z"/><path class="cls-1" d="M344.86,75q-8.85,0-12.65-4.25t-3.8-12.65q0-7.94,4.31-11.46t11.35-3.53a25.32,25.32,0,0,1,7.67,1.18,65.61,65.61,0,0,1,7.66,3V33a38.72,38.72,0,0,0-8.56-2.63,49.48,49.48,0,0,0-9.45-.95,35.5,35.5,0,0,0-11.86,1.9A25.67,25.67,0,0,0,320.19,37,26.06,26.06,0,0,0,314,46.56a37.24,37.24,0,0,0-2.24,13.49,32.09,32.09,0,0,0,2.35,12.75,24.48,24.48,0,0,0,6.49,9.06,27.73,27.73,0,0,0,9.51,5.37A35.93,35.93,0,0,0,341.5,89a38.75,38.75,0,0,0,9.85-1.12,40,40,0,0,0,8.16-3.13V70.56a48.4,48.4,0,0,1-6.65,3A22.53,22.53,0,0,1,344.86,75Z"/><path class="cls-1" d="M415.34,44.83a23.06,23.06,0,0,0-8.45-11.75q-5.76-4-15.16-4-13.65,0-21,8.11t-7.33,22.88a31.67,31.67,0,0,0,3.63,15.6,25,25,0,0,0,10.19,10.07,31.2,31.2,0,0,0,15,3.53,55.82,55.82,0,0,0,11.58-1.07,51.4,51.4,0,0,0,9-2.74V71.12q-1.9.78-4.59,1.79a48.78,48.78,0,0,1-5.76,1.74,27.15,27.15,0,0,1-6.21.72q-8.51,0-12.36-4.36a15.18,15.18,0,0,1-3.4-7.38h37.35Q418,52.55,415.34,44.83Zm-29.93-1.45a10.43,10.43,0,0,1,5.65-1.57q5.6,0,8.06,3.69a17.62,17.62,0,0,1,2.25,7.5H380.44a19.38,19.38,0,0,1,1.06-4.42A10.09,10.09,0,0,1,385.41,43.38Z"/><path class="cls-1" d="M461.15,57.86a22.82,22.82,0,0,0-5.59-2.68c-2-.63-3.9-1.18-5.76-1.62s-3.29-.92-4.7-1.4a9.12,9.12,0,0,1-3.41-2,4.42,4.42,0,0,1-1.29-3.36,4.18,4.18,0,0,1,1.9-3.58q1.9-1.34,6.27-1.34a19.12,19.12,0,0,1,8.55,1.85q3.75,1.84,7.56,4V34.65a35,35,0,0,0-7.44-3.3,42.53,42.53,0,0,0-11-1.51,30.15,30.15,0,0,0-7.84.84,23.77,23.77,0,0,0-7.49,3.19,17.3,17.3,0,0,0-5.6,5.87,17.92,17.92,0,0,0-2.12,9.12,18,18,0,0,0,1.29,7.21,14.74,14.74,0,0,0,3.41,5,16.34,16.34,0,0,0,4.81,3.19A28,28,0,0,0,438.05,66c2,.44,3.91.93,5.7,1.45a14.7,14.7,0,0,1,4.37,2,3.59,3.59,0,0,1,1.68,3.07,4.37,4.37,0,0,1-1.63,3.42q-1.62,1.4-5.65,1.39a27,27,0,0,1-7.44-1,30.38,30.38,0,0,1-6.43-2.63q-2.91-1.62-5.26-3.19V85.11q3.81,1.56,8.11,2.85a36.46,36.46,0,0,0,10.35,1.29,41.4,41.4,0,0,0,12.25-1.74,19.48,19.48,0,0,0,9.23-5.82q3.59-4.08,3.7-10.9a17.48,17.48,0,0,0-1.63-8.12A12.78,12.78,0,0,0,461.15,57.86Z"/><path class="cls-1" d="M510.6,57.86A22.82,22.82,0,0,0,505,55.18c-2-.63-3.9-1.18-5.76-1.62s-3.29-.92-4.7-1.4a9.24,9.24,0,0,1-3.42-2,4.45,4.45,0,0,1-1.28-3.36,4.18,4.18,0,0,1,1.9-3.58q1.9-1.34,6.26-1.34a19.13,19.13,0,0,1,8.56,1.85q3.75,1.84,7.55,4V34.65a34.66,34.66,0,0,0-7.43-3.3,42.53,42.53,0,0,0-11-1.51,30.15,30.15,0,0,0-7.84.84,23.77,23.77,0,0,0-7.49,3.19,17.3,17.3,0,0,0-5.6,5.87,17.92,17.92,0,0,0-2.12,9.12,18,18,0,0,0,1.29,7.21,14.74,14.74,0,0,0,3.41,5,16.34,16.34,0,0,0,4.81,3.19A28,28,0,0,0,487.5,66c2,.44,3.91.93,5.7,1.45a14.7,14.7,0,0,1,4.37,2,3.59,3.59,0,0,1,1.68,3.07,4.37,4.37,0,0,1-1.63,3.42Q496,77.28,492,77.27a27,27,0,0,1-7.44-1,30.17,30.17,0,0,1-6.43-2.63q-2.91-1.62-5.26-3.19V85.11Q476.65,86.67,481,88a36.36,36.36,0,0,0,10.35,1.29,41.4,41.4,0,0,0,12.25-1.74,19.53,19.53,0,0,0,9.23-5.82q3.59-4.08,3.69-10.9a17.49,17.49,0,0,0-1.62-8.12A12.78,12.78,0,0,0,510.6,57.86Z"/><rect class="cls-1" x="523.97" y="10.37" width="17.23" height="12.87"/><polygon class="cls-1" points="524.3 31.74 524.3 87.57 541.09 87.57 540.97 31.74 524.3 31.74"/><polygon class="cls-1" points="634.5 12.95 622.76 65.18 607.54 12.95 593.56 12.95 578.47 65.04 566.71 12.95 546.9 12.95 567.82 87.57 585.73 87.57 600.65 39.15 615.48 87.57 633.38 87.57 654.3 12.95 634.5 12.95"/><path class="cls-1" d="M697.55,34.76a20.44,20.44,0,0,0-6-3.41,32.11,32.11,0,0,0-6.49-1.62,43.42,43.42,0,0,0-5.93-.45,54.82,54.82,0,0,0-13.7,1.57,34.26,34.26,0,0,0-9,3.35V49a28.08,28.08,0,0,1,8.11-4.2,30.1,30.1,0,0,1,9.9-1.73c4,0,7.14.77,9.35,2.29s3.3,4,3.3,7.44v3.6c-.55-.31-1.11-.62-1.74-.91a30.32,30.32,0,0,0-6.43-2.13,34.61,34.61,0,0,0-7.38-.78,26.28,26.28,0,0,0-11.3,2.13,14.36,14.36,0,0,0-6.66,6,18.48,18.48,0,0,0-2.18,9.17,20.5,20.5,0,0,0,1.9,9.34,14.88,14.88,0,0,0,5.31,5.93,23.49,23.49,0,0,0,7.95,3.13,46.56,46.56,0,0,0,9.67,1A69.13,69.13,0,0,0,691,87.9a20.06,20.06,0,0,0,9.34-4.3,10.05,10.05,0,0,0,3.24-7.78l.11-26.74A19.81,19.81,0,0,0,702,40.47,16.66,16.66,0,0,0,697.55,34.76Zm-12.76,42a28.05,28.05,0,0,1-8,.78,10.66,10.66,0,0,1-4.3-.9,7.79,7.79,0,0,1-3.3-2.57,6.21,6.21,0,0,1-1.23-3.8,5.61,5.61,0,0,1,2.51-5.09c1.68-1.08,4.35-1.63,8-1.63a27.67,27.67,0,0,1,6.71.79c.67.16,1.3.36,1.91.56v8.72A3.08,3.08,0,0,1,684.79,76.72Z"/><path class="cls-1" d="M748.84,31,736.92,68.07,724.9,31H705.77l22.74,56a20.68,20.68,0,0,1-.93,2.61,9.27,9.27,0,0,1-3.41,4.36,9,9,0,0,1-4.86,1.28,19.18,19.18,0,0,1-3.25-.27,19.4,19.4,0,0,1-3.35-1v13.54a20.76,20.76,0,0,0,4.58,1.46,27,27,0,0,0,5.48.56,16.61,16.61,0,0,0,7.84-2,23.29,23.29,0,0,0,7.32-6.6,50.38,50.38,0,0,0,6.55-12.42L766.74,31Z"/></g></g></svg>